<svg width="240" height="30" xmlns="http://www.w3.org/2000/svg" xmlns:xlink="http://www.w3.org/1999/xlink"><defs><linearGradient x1="34.734%" y1="13.959%" x2="91.954%" y2="127.968%" id="a"><stop stop-color="#FFA02F" offset="0%"/><stop stop-color="#E00034" offset="100%"/></linearGradient><linearGradient x1="69.347%" y1="93.279%" x2="20.389%" y2="-44.264%" id="b"><stop stop-color="#FFA02F" offset="0%"/><stop stop-color="#E00034" offset="100%"/></linearGradient><g id="c"><path d="M11.713 1.23c0-.417.086-.812.214-1.187-1.852 1.098-5.7 3.888-5.7 8.137 0 6.978 5.414 7.435 5.414 11.496 0 1.715-1.245 2.653-2.888 2.653-2.705 0-5.965-4.107-3.97-9.374.001 0-4.692 2.146-4.692 6.808 0 5.91 5.13 10.17 11.46 10.17 6.33 0 11.462-4.79 11.462-10.7 0-9.033-8.525-12.742-10.575-15.824a3.667 3.667 0 01-.725-2.179z" fill="url(#a)" transform="translate(0.000000, -14.000000) translate(0.000000, 14.000000) translate(0.500000, 0.000000)"/><path d="M.662 23.1c2.088 4.634 8.43 6.023 11.532 3.022 2.546-2.463.964-6.11-1.482-9.103.556.758.936 1.581.936 2.656 0 1.72-1.248 2.662-2.894 2.662-2.71 0-5.977-4.12-3.979-9.406 0 0-3.668 1.683-4.523 5.302-.042.567-.098 1.274-.165 2.059.052.991.252 1.93.575 2.808z" fill="url(#b)" transform="translate(0.000000, -14.000000) translate(0.000000, 14.000000) translate(0.500000, 0.000000)"/><path d="M29.111 23.131c0 1.049.83 1.878 1.878 1.878a1.863 1.863 0 001.877-1.878v-3.389h2.853c3.828 0 6.9-2.048 6.9-5.998v-.049c0-3.486-2.462-5.9-6.534-5.9h-5.096a1.863 1.863 0 00-1.878 1.877v13.46zm3.755-6.73v-5.217h2.902c1.877 0 3.048.902 3.048 2.584v.05c0 1.462-1.097 2.584-2.975 2.584h-2.975zm13.912.903c.292-1.683 1.292-2.78 2.828-2.78 1.56 0 2.536 1.122 2.755 2.78h-5.583zm7.73 6.266a1.46 1.46 0 00.487-1.097c0-.829-.61-1.463-1.439-1.463-.39 0-.634.098-.902.293-.756.56-1.61.877-2.633.877-1.658 0-2.829-.877-3.194-2.56h7.339c.975 0 1.73-.707 1.73-1.78 0-2.706-1.925-6.29-6.29-6.29-3.804 0-6.461 3.072-6.461 6.802v.05c0 3.998 2.901 6.753 6.827 6.753 1.902 0 3.39-.61 4.535-1.585zm3.28-.414a1.852 1.852 0 103.706 0V8.77a1.852 1.852 0 10-3.706 0v14.386zm9.79 1.95c1.805 0 3.048-.658 3.95-1.658v.025c0 .78.707 1.536 1.78 1.536 1 0 1.805-.78 1.805-1.78v-5.95c0-1.755-.44-3.194-1.415-4.169-.926-.926-2.39-1.463-4.413-1.463-1.731 0-2.999.244-4.17.683-.584.22-.999.78-.999 1.438 0 .854.683 1.512 1.536 1.512.17 0 .317-.024.537-.097.707-.22 1.536-.366 2.56-.366 1.853 0 2.804.853 2.804 2.39v.219a9.287 9.287 0 00-3.194-.537c-3.097 0-5.267 1.317-5.267 4.17v.049c0 2.584 2.024 3.998 4.486 3.998zm1.122-2.56c-1.195 0-2.024-.585-2.024-1.585v-.048c0-1.17.975-1.805 2.56-1.805.903 0 1.732.195 2.365.488v.658c0 1.341-1.17 2.292-2.901 2.292zm8.498.61a1.852 1.852 0 103.707 0v-5.584c0-1.755.902-2.658 2.316-2.658 1.414 0 2.243.903 2.243 2.658v5.584a1.852 1.852 0 103.706 0v-6.754c0-3-1.633-4.852-4.437-4.852-1.878 0-2.975 1-3.828 2.097V13.5a1.852 1.852 0 10-3.707 0v9.656zM104.423 8.77a1.852 1.852 0 10-3.707 0v4.73c-.877-1.048-2.096-1.95-4.071-1.95-3.097 0-5.95 2.39-5.95 6.754v.048c0 4.365 2.902 6.754 5.95 6.754 1.926 0 3.17-.902 4.071-2.121v.17a1.852 1.852 0 103.707 0V8.77zm-6.827 5.925c1.73 0 3.17 1.439 3.17 3.609v.048c0 2.17-1.44 3.609-3.17 3.609-1.732 0-3.195-1.439-3.195-3.609v-.048c0-2.195 1.463-3.609 3.195-3.609zm15.447 10.46c4.072 0 7.095-3.048 7.095-6.803v-.048c0-3.755-2.999-6.754-7.046-6.754-4.072 0-7.096 3.047-7.096 6.802v.05c0 3.754 3 6.753 7.047 6.753zm.049-3.194c-2.048 0-3.438-1.682-3.438-3.609v-.048c0-1.927 1.268-3.56 3.389-3.56 2.048 0 3.438 1.682 3.438 3.608v.05c0 1.925-1.268 3.559-3.39 3.559z" fill="inherit" transform="translate(0.000000, -14.000000) translate(0.000000, 14.000000)"/></g></defs><use xlink:href="#c" fill="#fff"/><use x="120" xlink:href="#c"/></svg>