<svg width="246" height="184" xmlns="http://www.w3.org/2000/svg"><defs><linearGradient x1="34.734%" y1="13.959%" x2="91.954%" y2="127.968%" id="a"><stop stop-color="#FFA02F" offset="0%"/><stop stop-color="#E00034" offset="100%"/></linearGradient><linearGradient x1="69.347%" y1="93.279%" x2="20.389%" y2="-44.264%" id="b"><stop stop-color="#FFA02F" offset="0%"/><stop stop-color="#E00034" offset="100%"/></linearGradient></defs><g fill="none" fill-rule="evenodd"><path d="M46.35 4.725c0-1.663.342-3.233.852-4.725-7.388 4.37-22.734 15.475-22.734 32.39 0 27.78 21.594 29.597 21.594 45.763 0 6.828-4.967 10.56-11.517 10.56-10.79 0-23.79-16.346-15.832-37.314C18.716 51.4 0 59.941 0 78.502c0 23.524 20.462 40.485 45.704 40.485 25.245 0 45.707-19.07 45.707-42.593 0-35.964-33.998-50.726-42.172-62.997-1.798-2.446-2.89-5.426-2.89-8.672z" fill="url(#a)" transform="translate(-276.000000, -133.000000) translate(276.000000, 133.000000) translate(72.000000, 0.000000) translate(0.988571, 0.000000)"/><path d="M2.315 91.176c8.414 18.222 33.971 23.682 46.473 11.884 10.26-9.685 3.886-24.024-5.972-35.792 2.24 2.98 3.77 6.215 3.77 10.441 0 6.767-5.028 10.468-11.662 10.468-10.923 0-24.087-16.203-16.032-36.985 0 0-14.785 6.618-18.23 20.85A717.445 717.445 0 010 80.134a36.781 36.781 0 002.315 11.041z" fill="url(#b)" transform="translate(-276.000000, -133.000000) translate(276.000000, 133.000000) translate(72.000000, 0.000000) translate(0.988571, 0.000000)"/><path d="M.041 177.644c0 2.822 2.24 5.053 5.072 5.053s5.071-2.231 5.071-5.053v-9.123h7.706c10.34 0 18.638-5.513 18.638-16.145v-.131c0-9.385-6.651-15.882-17.65-15.882H5.113c-2.832 0-5.072 2.231-5.072 5.053v36.228zm10.143-18.114v-14.045h7.838c5.07 0 8.232 2.428 8.232 6.957v.131c0 3.938-2.964 6.957-8.035 6.957h-8.035zm37.577 2.428c.79-4.528 3.49-7.482 7.64-7.482 4.215 0 6.85 3.02 7.442 7.482H47.761zm20.878 16.867c.724-.656 1.317-1.64 1.317-2.953 0-2.232-1.647-3.938-3.886-3.938-1.054 0-1.712.262-2.437.787-2.041 1.51-4.347 2.363-7.113 2.363-4.478 0-7.64-2.363-8.627-6.891h19.824c2.634 0 4.676-1.903 4.676-4.791 0-7.285-5.203-16.932-16.992-16.932-10.275 0-17.454 8.269-17.454 18.31v.132c0 10.763 7.838 18.179 18.442 18.179 5.137 0 9.154-1.64 12.25-4.266zm8.861-1.116c0 2.757 2.24 4.988 5.006 4.988s5.005-2.231 5.005-4.988v-38.721c0-2.757-2.24-4.988-5.005-4.988-2.767 0-5.006 2.231-5.006 4.988v38.721zm26.446 5.25c4.874 0 8.233-1.771 10.67-4.462v.065c0 2.1 1.91 4.135 4.808 4.135 2.7 0 4.873-2.1 4.873-4.79v-16.014c0-4.726-1.185-8.598-3.82-11.223-2.502-2.494-6.454-3.938-11.92-3.938-4.677 0-8.101.656-11.263 1.838-1.58.59-2.7 2.1-2.7 3.872 0 2.297 1.844 4.069 4.15 4.069.46 0 .855-.066 1.448-.263 1.91-.59 4.15-.984 6.916-.984 5.005 0 7.574 2.297 7.574 6.432v.59c-2.503-.853-5.072-1.444-8.628-1.444-8.364 0-14.226 3.544-14.226 11.223v.131c0 6.957 5.466 10.764 12.118 10.764zm3.03-6.89c-3.227 0-5.467-1.576-5.467-4.266v-.132c0-3.15 2.635-4.856 6.916-4.856 2.437 0 4.676.525 6.388 1.312v1.772c0 3.61-3.16 6.17-7.837 6.17zm22.956 1.64c0 2.757 2.239 4.988 5.005 4.988s5.005-2.231 5.005-4.988V162.68c0-4.725 2.437-7.154 6.257-7.154s6.06 2.429 6.06 7.154v15.03c0 2.756 2.239 4.987 5.005 4.987s5.005-2.231 5.005-4.988v-18.18c0-8.072-4.412-13.06-11.986-13.06-5.072 0-8.035 2.691-10.34 5.645v-.394c0-2.756-2.24-4.988-5.006-4.988s-5.005 2.232-5.005 4.988v25.99zm73.536-38.721c0-2.757-2.239-4.988-5.005-4.988s-5.005 2.231-5.005 4.988v12.732c-2.371-2.822-5.665-5.25-11-5.25-8.364 0-16.07 6.431-16.07 18.179v.131c0 11.748 7.838 18.18 16.07 18.18 5.204 0 8.563-2.429 11-5.71v.46c0 2.756 2.239 4.987 5.005 4.987s5.005-2.231 5.005-4.988v-38.721zm-18.44 15.948c4.675 0 8.561 3.872 8.561 9.713v.131c0 5.841-3.886 9.713-8.562 9.713-4.676 0-8.627-3.872-8.627-9.713v-.131c0-5.907 3.951-9.713 8.627-9.713zm41.725 28.155c11 0 19.166-8.204 19.166-18.31v-.132c0-10.107-8.101-18.18-19.034-18.18-10.999 0-19.166 8.204-19.166 18.311v.132c0 10.106 8.101 18.179 19.034 18.179zm.132-8.598c-5.532 0-9.286-4.528-9.286-9.713v-.131c0-5.185 3.424-9.582 9.154-9.582 5.533 0 9.287 4.529 9.287 9.713v.132c0 5.184-3.425 9.581-9.155 9.581z" fill="#000"/></g></svg>